<svg width="105" height="105" viewBox="0 0 105 105" fill="none" xmlns="http://www.w3.org/2000/svg">
<g clip-path="url(#clip0)">
<circle cx="52.0667" cy="51.9999" r="52" fill="white"/>
<path d="M87.7455 30.4673H82.7273C82.0373 30.4673 81.4727 31.0375 81.4727 31.7343V33.0013C81.4727 32.3045 80.9082 31.7343 80.2182 31.7343H76.4545C75.7959 31.7343 75.247 32.257 75.2 32.9221L75.1059 34.2683H72.6909V31.7343C72.6909 31.0375 72.1264 30.4673 71.4364 30.4673H66.4182C65.7282 30.4673 65.1636 31.0375 65.1636 31.7343V39.3363C65.1636 40.0331 65.7282 40.6032 66.4182 40.6032H71.4364C72.1264 40.6032 72.6909 40.0331 72.6909 39.3363V36.8023H74.9491L74.2591 47.1599C74.1493 48.4744 73.0516 49.4722 71.75 49.4722H63.9091V48.9337C63.9091 48.4427 63.6268 47.9993 63.1877 47.7934C61.4941 46.9857 59.6907 46.4314 57.8402 46.1305C57.6364 46.0988 57.4325 46.1147 57.2443 46.1938C56.5543 45.988 55.8486 45.8296 55.1273 45.7504V42.2978C55.5036 42.1078 55.8643 41.8861 56.2093 41.6485C60.4277 38.6711 63.9091 35.6778 63.9091 29.2479V27.9334C63.9091 24.0849 62.3252 20.3948 59.5495 17.7658C54.6568 13.1729 47.2236 12.7295 41.8291 16.7205C36.3875 15.7227 31.1811 19.3812 30.1932 24.8767C30.0834 25.4627 30.0364 26.0645 30.0364 26.6505V45.6554C30.0364 46.3522 30.6009 46.9224 31.2909 46.9224C36.0895 46.9382 40.7 45.0694 44.1657 41.7119C44.4636 41.9177 44.7773 42.092 45.0909 42.2662V45.7187C44.3695 45.7979 43.6639 45.9563 42.9739 46.1622C42.7857 46.0988 42.5818 46.0671 42.378 46.0988C40.5275 46.3997 38.7241 46.954 37.0305 47.7617C36.5914 47.9676 36.3091 48.4111 36.3091 48.902V48.9495C31.5575 54.3342 28.8916 61.2552 28.7818 68.4612C28.7818 71.9296 28.9386 75.9364 29.958 78.5971H27.5273V76.0631C27.5273 75.3663 26.9627 74.7961 26.2727 74.7961H21.2545C20.5645 74.7961 20 75.3663 20 76.0631V83.665C20 84.3619 20.5645 84.932 21.2545 84.932H26.2727C26.9627 84.932 27.5273 84.3619 27.5273 83.665V81.1311H34.6939C33.2825 83.8709 32.5455 86.9117 32.5455 90H35.0545C35.0545 87.8144 35.4936 85.6606 36.3091 83.6492V83.665C36.3091 84.3619 36.8736 84.932 37.5636 84.932H42.5818C43.2718 84.932 43.8364 84.3619 43.8364 83.665V78.5971H59.5495L60.2709 79.5157C62.6232 82.4931 63.9091 86.199 63.9091 90H66.4182C66.4182 85.613 64.9284 81.3528 62.2311 77.9319L61.2745 76.7283L60.7884 75.2712C59.628 71.7237 59.7377 67.8752 61.102 64.4068L61.1648 64.2326C62.7173 63.7416 63.815 62.3321 63.9091 60.685V60.6375L77.5052 57.6918C79.8105 57.185 81.457 55.1261 81.4727 52.7347V39.3363C81.4727 40.0331 82.0373 40.6032 82.7273 40.6032H87.7455C88.4355 40.6032 89 40.0331 89 39.3363V31.7343C89 31.0375 88.4355 30.4673 87.7455 30.4673ZM70.1818 38.0693H67.6727V33.0013H70.1818V38.0693ZM25.0182 82.4139H22.5091V77.3459H25.0182V82.4139ZM36.3091 60.59C34.6468 64.3751 34.098 74.226 34.7409 78.0745L34.835 78.6129H32.7493C32.028 77.5993 31.2909 74.9862 31.2909 68.477C31.4007 62.9023 33.1414 57.47 36.3091 52.893V60.59ZM49.3564 16.5463C55.2998 16.1345 60.5375 20.4898 61.3059 26.4605L54.4373 22.9921C54.202 22.8654 53.9198 22.8337 53.6532 22.8812L39.0848 25.4786C40.1041 20.4898 44.3225 16.8314 49.3564 16.5463ZM32.5455 44.3567V26.6664C32.5455 22.7387 35.5093 19.4604 39.3827 19.0961C37.3755 21.5984 36.2934 24.7184 36.3091 27.9334V29.232C36.3091 34.6642 38.8025 37.6417 42.1114 40.239C39.4611 42.6304 36.1052 44.0875 32.5455 44.3567ZM38.8182 29.232V28.0917L53.6845 25.4469L61.4 29.3429C61.3686 34.0624 59.2359 36.4063 54.7823 39.558C51.9752 41.5218 48.2586 41.5218 45.4673 39.558C40.9509 36.3905 38.8182 34.0307 38.8182 29.232ZM43.8364 48.5536C44.6518 48.3319 45.4986 48.2052 46.3455 48.2052C47.0355 48.2052 47.6 47.635 47.6 46.9382V43.2481C49.2466 43.6915 50.9716 43.6915 52.6182 43.2481V46.9382C52.6182 47.635 53.1827 48.2052 53.8727 48.2052C54.7195 48.2052 55.5664 48.316 56.3818 48.5536V50.5808L50.1091 51.9428L43.8364 50.5808V48.5536ZM37.0148 74.9545C36.9364 71.1694 37.2657 67.3842 37.987 63.6625C38.3164 63.8842 38.6614 64.0742 39.0377 64.2326C40.308 67.6376 40.355 71.3753 39.1945 74.812H37.5636C37.3755 74.812 37.1873 74.8595 37.0148 74.9545ZM41.3273 82.4139H38.8182V77.3459H41.3273V82.4139ZM43.8364 76.079C43.8364 75.3821 43.2718 74.812 42.5818 74.812H41.8291C42.7857 71.502 42.7857 67.9861 41.8291 64.676H58.342C57.1659 68.382 57.1816 72.3888 58.4048 76.079H43.8364ZM61.4 60.685C61.4 61.366 60.3336 62.1421 58.8909 62.1421H41.3273C39.8845 62.1421 38.8182 61.366 38.8182 60.685V49.7572C39.6336 49.4247 40.4648 49.1396 41.3273 48.9337V51.6102C41.3273 52.212 41.735 52.7188 42.3152 52.8455L49.8425 54.4768C50.015 54.5085 50.2032 54.5085 50.3757 54.4768L57.903 52.8455C58.4832 52.7188 58.8909 52.1962 58.8909 51.6102V48.9337C59.7534 49.1396 60.5845 49.4247 61.4 49.7572V60.685ZM78.9636 52.7347C78.9636 53.9225 78.1325 54.9519 76.9877 55.2053L63.9091 58.0402V52.0061H71.7657C74.3689 52.022 76.5486 49.9948 76.7682 47.3658L77.6307 34.2683H78.9636V52.7347ZM86.4909 38.0693H83.9818V33.0013H86.4909V38.0693Z" fill="url(#paint0_linear)"/>
<path d="M52.2111 104.711C38.2646 104.711 25.1536 99.2793 15.2918 89.4192C5.43007 79.5591 0 66.4465 0 52.4999C0 38.5534 5.4317 25.4424 15.2918 15.5806C25.152 5.71889 38.2646 0.288818 52.2111 0.288818C66.1576 0.288818 79.2686 5.72052 89.1304 15.5806C98.9922 25.4408 104.422 38.5534 104.422 52.4999C104.422 66.4465 98.9922 79.5575 89.1304 89.4192C79.2686 99.281 66.1576 104.711 52.2111 104.711ZM52.2111 4.19769C25.577 4.19769 3.90887 25.8659 3.90887 52.4999C3.90887 79.134 25.577 100.802 52.2111 100.802C78.8452 100.802 100.513 79.134 100.513 52.4999C100.513 25.8659 78.8452 4.19769 52.2111 4.19769Z" fill="url(#paint1_linear)"/>
</g>
<defs>
<linearGradient id="paint0_linear" x1="20" y1="95.9748" x2="89" y2="95.9748" gradientUnits="userSpaceOnUse">
<stop stop-color="#6746EE"/>
<stop offset="1" stop-color="#B363A7"/>
</linearGradient>
<linearGradient id="paint1_linear" x1="0" y1="52.5002" x2="104.423" y2="52.5002" gradientUnits="userSpaceOnUse">
<stop stop-color="#7A60DA"/>
<stop offset="0.9972" stop-color="#B759CD"/>
<stop offset="1" stop-color="#77C043"/>
</linearGradient>
<clipPath id="clip0">
<rect y="0.288818" width="104.422" height="104.422" rx="25" fill="white"/>
</clipPath>
</defs>
</svg>
