<svg width="105" height="105" viewBox="0 0 105 105" fill="none" xmlns="http://www.w3.org/2000/svg">
<g clip-path="url(#clip0)">
<circle cx="52.0667" cy="52" r="52" fill="white"/>
<path d="M82.938 48.4771C80.679 48.4771 78.7539 49.9348 78.0519 51.9576L68.8254 39.6365C66.6853 36.7798 63.5598 34.8172 60.1184 34.0794C63.1575 31.6836 65.1152 27.9718 65.1152 23.8105C65.1152 23.7502 65.1119 23.6932 65.1119 23.6346C66.3856 23.0434 67.2716 21.7567 67.2716 20.2616C67.2716 18.211 65.6038 16.5416 63.5517 16.5416H62.9067C60.493 12.9438 56.3903 10.7353 52.04 10.7353C47.6898 10.7353 43.5871 12.9438 41.1734 16.5416H40.5284C38.4779 16.5416 36.8085 18.2094 36.8085 20.2616C36.8085 21.7551 37.6961 23.0434 38.9681 23.6346C38.9681 23.6932 38.9649 23.7519 38.9649 23.8105C38.9649 28.0109 40.9584 31.752 44.0464 34.1462C42.934 34.4068 41.8525 34.796 40.833 35.3075C38.8036 36.3238 37.0121 37.8205 35.6505 39.6365L33.4094 42.635L32.1243 41.5242C34.3931 40.4395 35.5935 37.8238 34.8361 35.3482C34.0022 32.6217 31.1048 31.0826 28.3783 31.9149C27.0575 32.3188 25.9727 33.213 25.3245 34.4328C24.6763 35.6527 24.5411 37.0518 24.945 38.3727C25.1177 38.9378 25.3815 39.459 25.7203 39.9216C24.7822 40.2864 23.932 40.9085 23.287 41.7718C22.5574 42.7473 22.1714 43.9037 22.1714 45.1171C22.1714 45.5275 22.2186 45.9347 22.3082 46.3305C21.7447 46.3093 21.1681 46.3777 20.5981 46.552C17.8716 47.3859 16.3309 50.2833 17.1648 53.0098C17.8456 55.2346 19.8993 56.6694 22.1127 56.6694C22.6127 56.6694 23.1209 56.5961 23.6225 56.4431C25.7138 55.803 27.1047 53.9495 27.2643 51.8908L31.1243 54.9935C31.1341 55.0017 31.1455 55.0098 31.1553 55.0179C32.3426 55.9072 33.8035 56.2802 35.2726 56.0701C36.7401 55.86 38.0381 55.0896 38.9274 53.9023L39.4665 53.184V85.8426C39.4665 88.8753 41.8819 91.4258 44.8493 91.5301C46.3787 91.5854 47.8299 91.0317 48.9292 89.9698C50.0319 88.9079 50.6377 87.4779 50.6377 85.9469V70.9042C50.6377 70.8977 50.6394 70.8928 50.6394 70.8863C50.6394 70.8798 50.6394 70.8749 50.6377 70.8684V67.2315C50.6377 66.352 51.2892 65.6191 52.1231 65.5638C52.5938 65.5312 53.0352 65.6957 53.3674 66.0279C53.6704 66.3309 53.8365 66.7315 53.8365 67.1566V85.8475C53.8365 88.929 56.2991 91.4796 59.3268 91.5317C59.3578 91.5317 59.3887 91.5317 59.4197 91.5317C60.9132 91.5317 62.3138 90.9535 63.3741 89.8948C64.4279 88.8378 65.0093 87.4355 65.0093 85.9453V53.1808L70.3238 60.277C67.897 60.7021 66.0468 62.8227 66.0468 65.3699C66.0468 68.2218 68.3661 70.541 71.2179 70.541C74.0698 70.541 76.389 68.2218 76.389 65.3699C76.389 64.5442 76.1936 63.7624 75.8467 63.0686C76.8972 62.9546 77.8956 62.5441 78.7409 61.8617C79.8598 60.961 80.5308 59.6776 80.7214 58.3193C81.394 58.6402 82.1449 58.8193 82.938 58.8193C85.7899 58.8193 88.1091 56.5001 88.1091 53.6482C88.1091 50.7964 85.7899 48.4771 82.938 48.4771ZM48.5872 36.4199C49.6882 36.7212 50.8462 36.8873 52.0417 36.8873C53.2371 36.8873 54.3951 36.7228 55.4961 36.4199V38.1284C55.4961 40.0339 53.9456 41.5828 52.0417 41.5828C50.1361 41.5828 48.5872 40.0339 48.5872 38.1284V36.4199ZM52.0417 13.0953C55.0433 13.0953 57.9001 14.3787 59.9099 16.5433H44.1734C46.1832 14.3787 49.04 13.0953 52.0417 13.0953ZM41.3297 23.9815H57.9685C58.62 23.9815 59.1477 23.4538 59.1477 22.8023C59.1477 22.1509 58.62 21.6232 57.9685 21.6232H40.53C39.7792 21.6232 39.1684 21.0124 39.1684 20.2616C39.1684 19.5107 39.7792 18.9 40.53 18.9H63.5533C64.3041 18.9 64.9149 19.5107 64.9149 20.2616C64.9149 21.0124 64.3041 21.6232 63.5533 21.6232H61.7796C61.1282 21.6232 60.6005 22.1509 60.6005 22.8023C60.6005 23.4538 61.1282 23.9815 61.7796 23.9815H62.7536C62.6624 29.8122 57.8936 34.5273 52.0417 34.5273C46.1898 34.5273 41.4209 29.8122 41.3297 23.9815ZM27.4093 35.5387C27.7611 34.8759 28.3523 34.3889 29.0705 34.169C29.3442 34.0859 29.6194 34.0452 29.8914 34.0452C31.095 34.0452 32.2123 34.8254 32.582 36.0355C33.0364 37.5176 32.1976 39.0942 30.7155 39.547C29.9973 39.7668 29.2367 39.6935 28.5721 39.3401C27.9093 38.9883 27.4223 38.3971 27.2024 37.6788C26.9825 36.9622 27.0558 36.2016 27.4093 35.5387ZM22.9352 54.1841C21.4531 54.6368 19.8765 53.7997 19.4238 52.3176C18.9694 50.8355 19.8081 49.2589 21.2902 48.8061C21.5639 48.723 21.8391 48.6823 22.1111 48.6823C23.3147 48.6823 24.432 49.4625 24.8017 50.6726C25.2545 52.1547 24.4173 53.7296 22.9352 54.1841ZM37.0414 52.4853C36.5316 53.1677 35.784 53.6107 34.9403 53.7313C34.1016 53.8518 33.2677 53.6401 32.5885 53.1368L25.8571 47.7246C25.8473 47.7165 25.8359 47.7084 25.8245 47.7002C25.002 47.0846 24.5314 46.1415 24.5314 45.1138C24.5314 44.4135 24.7545 43.7457 25.1763 43.1822C26.235 41.7685 28.2399 41.4721 29.6634 42.5112L32.4142 44.8923V47.4787C32.4142 48.1302 32.9419 48.6579 33.5934 48.6579C34.2449 48.6579 34.7726 48.1302 34.7726 47.4787V44.7474L35.4062 43.9005L39.2026 49.5976L37.0414 52.4853ZM61.708 88.2271C61.0826 88.8508 60.247 89.1864 59.3675 89.1733C57.6199 89.144 56.1981 87.6505 56.1981 85.8475V72.0655H62.6526V85.9453C62.651 86.8068 62.3155 87.6179 61.708 88.2271ZM71.2179 68.1811C69.6674 68.1811 68.4052 66.9188 68.4052 65.3683C68.4052 63.8178 69.6674 62.5555 71.2179 62.5555C72.7684 62.5555 74.0307 63.8178 74.0307 65.3683C74.0307 66.9188 72.7684 68.1811 71.2179 68.1811ZM77.2604 60.0246C76.5715 60.5799 75.7099 60.8259 74.832 60.7168C73.9541 60.606 73.1789 60.1565 72.6496 59.448L65.3856 49.7507L68.3074 46.8289C68.7684 46.3679 68.7684 45.622 68.3074 45.1611C67.8465 44.7002 67.1006 44.7002 66.6397 45.1611L65.0077 46.793V45.8484C65.0077 45.1969 64.48 44.6692 63.8285 44.6692C63.1771 44.6692 62.6494 45.1969 62.6494 45.8484V49.6302C62.6494 49.6335 62.6477 49.6384 62.6477 49.6416V58.4594H61.05C60.3985 58.4594 59.8708 58.9871 59.8708 59.6386C59.8708 60.29 60.3985 60.8177 61.05 60.8177H62.6477V69.7088H56.1932V67.1599C56.1932 66.1045 55.7811 65.111 55.0336 64.3634C54.2241 63.5539 53.1036 63.1337 51.9602 63.2135C49.895 63.3536 48.2777 65.1207 48.2777 67.2348V69.7104H44.9015C44.25 69.7104 43.7223 70.2381 43.7223 70.8896C43.7223 71.5411 44.25 72.0688 44.9015 72.0688H48.2777V85.9485C48.2777 86.8329 47.9276 87.6586 47.2908 88.2727C46.6556 88.885 45.8152 89.2059 44.9324 89.1733C43.219 89.1131 41.8248 87.6195 41.8248 85.8426V60.8145H56.5141C57.1655 60.8145 57.6932 60.2868 57.6932 59.6353C57.6932 58.9838 57.1655 58.4561 56.5141 58.4561H41.8248V50.0325L44.5236 46.4298C44.9145 45.9086 44.8086 45.1692 44.2874 44.7783C43.7663 44.3874 43.0268 44.4933 42.6359 45.0145L40.7027 47.5943L36.9062 41.8955L37.5381 41.0502C38.6798 39.5258 40.1848 38.2701 41.8884 37.4166C43.2386 36.7407 44.719 36.3173 46.2256 36.1723V38.1267C46.2256 41.332 48.8331 43.9396 52.0384 43.9396C55.2437 43.9396 57.8512 41.332 57.8512 38.1267V36.1397C61.423 36.371 64.7748 38.1691 66.9345 41.0502L77.7506 55.4935C78.8174 56.9154 78.5975 58.948 77.2604 60.0246ZM82.938 56.461C81.3875 56.461 80.1253 55.1987 80.1253 53.6482C80.1253 52.0977 81.3875 50.8354 82.938 50.8354C84.4885 50.8354 85.7508 52.0977 85.7508 53.6482C85.7508 55.1987 84.4885 56.461 82.938 56.461Z" fill="url(#paint0_linear)"/>
<path d="M52.2111 104.711C38.2646 104.711 25.1536 99.2794 15.2918 89.4193C5.43007 79.5592 0 66.4465 0 52.5C0 38.5535 5.4317 25.4425 15.2918 15.5807C25.152 5.71895 38.2646 0.288879 52.2111 0.288879C66.1576 0.288879 79.2686 5.72058 89.1304 15.5807C98.9922 25.4408 104.422 38.5535 104.422 52.5C104.422 66.4465 98.9922 79.5575 89.1304 89.4193C79.2686 99.281 66.1576 104.711 52.2111 104.711ZM52.2111 4.19775C25.577 4.19775 3.90887 25.8659 3.90887 52.5C3.90887 79.1341 25.577 100.802 52.2111 100.802C78.8452 100.802 100.513 79.1341 100.513 52.5C100.513 25.8659 78.8452 4.19775 52.2111 4.19775Z" fill="url(#paint1_linear)"/>
</g>
<defs>
<linearGradient id="paint0_linear" x1="16.9403" y1="51.1344" x2="88.1091" y2="51.1344" gradientUnits="userSpaceOnUse">
<stop stop-color="#7A60DA"/>
<stop offset="0.9972" stop-color="#B759CD"/>
<stop offset="1" stop-color="#77C043"/>
</linearGradient>
<linearGradient id="paint1_linear" x1="0" y1="52.5003" x2="104.423" y2="52.5003" gradientUnits="userSpaceOnUse">
<stop stop-color="#7A60DA"/>
<stop offset="0.9972" stop-color="#B759CD"/>
<stop offset="1" stop-color="#77C043"/>
</linearGradient>
<clipPath id="clip0">
<rect y="0.288879" width="104.422" height="104.422" rx="25" fill="white"/>
</clipPath>
</defs>
</svg>
