<svg width="74" height="74" viewBox="0 0 74 74" fill="none" xmlns="http://www.w3.org/2000/svg">
<path d="M59.1818 21.8338H55.9091C55.4591 21.8338 55.0909 22.2089 55.0909 22.6673V23.5009C55.0909 23.0424 54.7227 22.6673 54.2727 22.6673H51.8182C51.3886 22.6673 51.0307 23.0112 51 23.4488L50.9386 24.3344H49.3636V22.6673C49.3636 22.2089 48.9955 21.8338 48.5455 21.8338H45.2727C44.8227 21.8338 44.4545 22.2089 44.4545 22.6673V27.6686C44.4545 28.127 44.8227 28.5021 45.2727 28.5021H48.5455C48.9955 28.5021 49.3636 28.127 49.3636 27.6686V26.0015H50.8364L50.3864 32.8157C50.3148 33.6805 49.5989 34.337 48.75 34.337H43.6364V33.9827C43.6364 33.6597 43.4523 33.368 43.1659 33.2325C42.0614 32.7011 40.8852 32.3364 39.6784 32.1385C39.5455 32.1176 39.4125 32.1281 39.2898 32.1802C38.8398 32.0447 38.3795 31.9405 37.9091 31.8884V29.617C38.1545 29.492 38.3898 29.3461 38.6148 29.1898C41.3659 27.231 43.6364 25.2617 43.6364 21.0315V20.1667C43.6364 17.6348 42.6034 15.2071 40.7932 13.4775C37.6023 10.4559 32.7545 10.1641 29.2364 12.7898C25.6875 12.1334 22.292 14.5402 21.6477 18.1557C21.5761 18.5413 21.5455 18.9372 21.5455 19.3227V31.8259C21.5455 32.2843 21.9136 32.6594 22.3636 32.6594C25.4932 32.6699 28.5 31.4404 30.7602 29.2315C30.9545 29.3669 31.1591 29.4816 31.3636 29.5962V31.8676C30.8932 31.9197 30.433 32.0239 29.983 32.1593C29.8602 32.1176 29.7273 32.0968 29.5943 32.1176C28.3875 32.3156 27.2114 32.6803 26.1068 33.2117C25.8205 33.3471 25.6364 33.6389 25.6364 33.9619V33.9931C22.5375 37.5357 20.7989 42.0889 20.7273 46.8297C20.7273 49.1116 20.8295 51.7476 21.4943 53.4981H19.9091V51.831C19.9091 51.3725 19.5409 50.9975 19.0909 50.9975H15.8182C15.3682 50.9975 15 51.3725 15 51.831V56.8323C15 57.2907 15.3682 57.6658 15.8182 57.6658H19.0909C19.5409 57.6658 19.9091 57.2907 19.9091 56.8323V55.1652H24.583C23.6625 56.9677 23.1818 58.9682 23.1818 61H24.8182C24.8182 59.5621 25.1045 58.1451 25.6364 56.8218V56.8323C25.6364 57.2907 26.0045 57.6658 26.4545 57.6658H29.7273C30.1773 57.6658 30.5455 57.2907 30.5455 56.8323V53.4981H40.7932L41.2636 54.1024C42.7977 56.0612 43.6364 58.4994 43.6364 61H45.2727C45.2727 58.1138 44.3011 55.3111 42.542 53.0605L41.9182 52.2686L41.6011 51.31C40.8443 48.9761 40.9159 46.4442 41.8057 44.1624L41.8466 44.0478C42.8591 43.7248 43.575 42.7974 43.6364 41.7138V41.6826L52.5034 39.7446C54.0068 39.4112 55.0807 38.0567 55.0909 36.4833V27.6686C55.0909 28.127 55.4591 28.5021 55.9091 28.5021H59.1818C59.6318 28.5021 60 28.127 60 27.6686V22.6673C60 22.2089 59.6318 21.8338 59.1818 21.8338ZM47.7273 26.835H46.0909V23.5009H47.7273V26.835ZM18.2727 56.0091H16.6364V52.675H18.2727V56.0091ZM25.6364 41.6513C24.5523 44.1415 24.1943 50.6224 24.6136 53.1543L24.675 53.5085H23.3148C22.8443 52.8417 22.3636 51.1225 22.3636 46.8401C22.4352 43.1725 23.5705 39.5987 25.6364 36.5875V41.6513ZM34.1455 12.6752C38.0216 12.4043 41.4375 15.2696 41.9386 19.1977L37.4591 16.9159C37.3057 16.8325 37.1216 16.8117 36.9477 16.8429L27.4466 18.5517C28.1114 15.2696 30.8625 12.8627 34.1455 12.6752ZM23.1818 30.9715V19.3331C23.1818 16.7491 25.1148 14.5923 27.6409 14.3527C26.3318 15.999 25.6261 18.0516 25.6364 20.1667V21.0211C25.6364 24.5949 27.2625 26.5537 29.4205 28.2625C27.692 29.8358 25.5034 30.7944 23.1818 30.9715ZM27.2727 21.0211V20.2709L36.9682 18.5308L42 21.094C41.9795 24.199 40.5886 25.741 37.6841 27.8145C35.8534 29.1065 33.4295 29.1065 31.6091 27.8145C28.6636 25.7306 27.2727 24.1781 27.2727 21.0211ZM30.5455 33.7326C31.0773 33.5868 31.6295 33.5034 32.1818 33.5034C32.6318 33.5034 33 33.1283 33 32.6699V30.2422C34.0739 30.5339 35.1989 30.5339 36.2727 30.2422V32.6699C36.2727 33.1283 36.6409 33.5034 37.0909 33.5034C37.6432 33.5034 38.1955 33.5763 38.7273 33.7326V35.0663L34.6364 35.9624L30.5455 35.0663V33.7326ZM26.0966 51.1016C26.0455 48.6114 26.2602 46.1212 26.7307 43.6727C26.9455 43.8185 27.1705 43.9436 27.4159 44.0478C28.2443 46.2879 28.275 48.7469 27.5182 51.0079H26.4545C26.3318 51.0079 26.2091 51.0391 26.0966 51.1016ZM28.9091 56.0091H27.2727V52.675H28.9091V56.0091ZM30.5455 51.8414C30.5455 51.383 30.1773 51.0079 29.7273 51.0079H29.2364C29.8602 48.8302 29.8602 46.5171 29.2364 44.3395H40.0057C39.2386 46.7776 39.2489 49.4137 40.0466 51.8414H30.5455ZM42 41.7138C42 42.1619 41.3045 42.6724 40.3636 42.6724H28.9091C27.9682 42.6724 27.2727 42.1619 27.2727 41.7138V34.5245C27.8045 34.3057 28.3466 34.1182 28.9091 33.9827V35.7436C28.9091 36.1395 29.175 36.4729 29.5534 36.5563L34.4625 37.6295C34.575 37.6503 34.6977 37.6503 34.8102 37.6295L39.7193 36.5563C40.0977 36.4729 40.3636 36.1291 40.3636 35.7436V33.9827C40.9261 34.1182 41.4682 34.3057 42 34.5245V41.7138ZM53.4545 36.4833C53.4545 37.2648 52.9125 37.942 52.1659 38.1088L43.6364 39.9738V36.004H48.7602C50.458 36.0145 51.8795 34.6808 52.0227 32.9512L52.5852 24.3344H53.4545V36.4833ZM58.3636 26.835H56.7273V23.5009H58.3636V26.835Z" fill="url(#paint0_linear)"/>
<path d="M37 74C27.1166 74 17.8254 70.1508 10.8367 63.1633C3.84808 56.1758 0 46.8834 0 37C0 27.1166 3.84924 17.8254 10.8367 10.8367C17.8242 3.84808 27.1166 0 37 0C46.8834 0 56.1746 3.84924 63.1633 10.8367C70.1519 17.8242 74 27.1166 74 37C74 46.8834 70.1519 56.1746 63.1633 63.1633C56.1746 70.1519 46.8834 74 37 74ZM37 2.77007C18.1255 2.77007 2.77007 18.1255 2.77007 37C2.77007 55.8745 18.1255 71.2299 37 71.2299C55.8745 71.2299 71.2299 55.8745 71.2299 37C71.2299 18.1255 55.8745 2.77007 37 2.77007Z" fill="url(#paint1_linear)"/>
<defs>
<linearGradient id="paint0_linear" x1="15" y1="64.9308" x2="60" y2="64.9308" gradientUnits="userSpaceOnUse">
<stop stop-color="#6746EE"/>
<stop offset="1" stop-color="#B363A7"/>
</linearGradient>
<linearGradient id="paint1_linear" x1="0" y1="37.0002" x2="74.0004" y2="37.0002" gradientUnits="userSpaceOnUse">
<stop stop-color="#7A60DA"/>
<stop offset="0.9972" stop-color="#B759CD"/>
<stop offset="1" stop-color="#77C043"/>
</linearGradient>
</defs>
</svg>
