<svg width="48" height="48" viewBox="0 0 48 48" fill="none" xmlns="http://www.w3.org/2000/svg">
<g clip-path="url(#clip0)">
<path d="M24 48C30.3227 48 36.0516 45.4615 40.226 41.3492H7.77393C11.9483 45.4615 17.6773 48 24 48Z" fill="#5092CD"/>
<path d="M23.0154 41.3492H7.77393C11.6875 45.2044 16.9673 47.6766 22.8216 47.9705C18.5365 47.7554 18.7249 41.3492 23.0154 41.3492Z" fill="#67AAE6"/>
<path d="M7.77397 41.3491H40.2261C44.4835 37.1552 47.1238 31.3243 47.1238 24.8761C47.1238 12.1052 36.7709 1.75232 24 1.75232C11.2291 1.75232 0.876221 12.1052 0.876221 24.8761C0.876221 31.3244 3.5166 37.1552 7.77397 41.3491Z" fill="#67AAE6"/>
<path d="M41.3239 13.1711H39.0316C38.321 22.3321 37.2468 35.579 36.8768 40.6648C36.7956 41.7805 35.897 42.6524 34.7927 42.7136V42.7174H38.7118C41.3669 40.5254 43.5231 37.7515 44.9883 34.5919C43.9258 28.3428 42.4273 19.7121 41.3239 13.1711Z" fill="#A3CCEF"/>
<path d="M39.0597 42.422C39.2889 42.2251 39.5147 42.0245 39.736 41.8189C39.9776 41.4927 40.133 41.0976 40.1645 40.6649C40.4832 36.2845 41.3243 25.8499 42.0055 17.1864C41.7675 15.7912 41.5381 14.4416 41.3239 13.1713H39.0316C38.321 22.3322 37.2468 35.5791 36.8768 40.6649C36.7956 41.7807 35.897 42.6525 34.7927 42.7138V42.7175H38.0804V42.7138C38.4349 42.694 38.7677 42.59 39.0597 42.422Z" fill="#85BBEB"/>
<path d="M39.0242 13.2651H41.3396C40.8772 10.5252 40.4829 8.14518 40.2177 6.45327C40.0485 5.3743 39.3379 4.49774 38.3889 4.08252C39.1322 4.47974 39.6193 5.2873 39.5558 6.19133C39.436 7.89955 39.2478 10.384 39.0242 13.2651Z" fill="#DB2E26"/>
<path d="M4.09673 13.0772C3.40317 22.0512 2.36302 35.0262 1.96955 40.3407C1.87448 41.6243 2.89036 42.7174 4.17755 42.7174H34.7624C35.9227 42.7174 36.8863 41.8222 36.9705 40.6649C37.3417 35.5617 38.4221 22.2413 39.1326 13.0772H4.09673Z" fill="#EAF3F9"/>
<path d="M5.13305 40.3407C5.52642 35.0262 6.56667 22.0512 7.26014 13.0772H4.09673C3.40317 22.0512 2.36302 35.0262 1.96955 40.3407C1.87448 41.6243 2.89036 42.7174 4.17755 42.7174H7.34095C6.05386 42.7174 5.03808 41.6243 5.13305 40.3407Z" fill="#C5DEF3"/>
<path d="M37.4413 3.82227H6.84584C5.68324 3.82227 4.71884 4.72105 4.63728 5.88083C4.51737 7.58623 4.31937 10.1999 4.08228 13.2651H39.1182C39.3418 10.3837 39.5301 7.89964 39.6499 6.19142C39.7397 4.91061 38.7253 3.82227 37.4413 3.82227Z" fill="#FB4A34"/>
<path d="M10.0103 3.82227H6.84584C5.68324 3.82227 4.71884 4.72105 4.63728 5.88083C4.51746 7.58623 4.31937 10.1999 4.08228 13.2651H7.24671C7.48381 10.1999 7.68171 7.58614 7.80171 5.88083C7.88318 4.72105 8.8475 3.82227 10.0103 3.82227Z" fill="#ED3B2E"/>
<path d="M12.0047 10.7197C13.1569 10.7197 14.0909 9.78565 14.0909 8.63346C14.0909 7.48127 13.1569 6.54724 12.0047 6.54724C10.8525 6.54724 9.91846 7.48127 9.91846 8.63346C9.91846 9.78565 10.8525 10.7197 12.0047 10.7197Z" fill="#DB2E26"/>
<path d="M13.8884 9.53025C14.018 9.25847 14.0908 8.95434 14.0908 8.63316C14.0908 8.01394 13.8207 7.458 13.3922 7.07597C12.9933 7.33762 12.5165 7.49016 12.0048 7.49016C10.6053 7.49016 9.46657 6.35147 9.46657 4.95197C9.46657 3.55247 10.6053 2.41378 12.0048 2.41378C12.9986 2.41378 13.8604 2.98828 14.2767 3.82219H16.8251C16.3126 1.63453 14.3467 0 12.0049 0C9.27429 0 7.05298 2.22141 7.05298 4.95187C7.05298 7.68234 9.27439 9.90375 12.0049 9.90375C12.6717 9.90384 13.3074 9.77025 13.8884 9.53025Z" fill="#C5DEF3"/>
<path d="M32.4429 10.7197C33.5951 10.7197 34.5291 9.78565 34.5291 8.63346C34.5291 7.48127 33.5951 6.54724 32.4429 6.54724C31.2907 6.54724 30.3567 7.48127 30.3567 8.63346C30.3567 9.78565 31.2907 10.7197 32.4429 10.7197Z" fill="#DB2E26"/>
<path d="M34.3264 9.53025C34.456 9.25847 34.5288 8.95434 34.5288 8.63316C34.5288 8.01394 34.2587 7.458 33.8302 7.07597C33.4312 7.33762 32.9545 7.49016 32.4427 7.49016C31.0432 7.49016 29.9046 6.35147 29.9046 4.95197C29.9046 3.55247 31.0432 2.41378 32.4427 2.41378C33.4366 2.41378 34.2983 2.98828 34.7147 3.82219H37.2631C36.7506 1.63453 34.7847 0 32.4428 0C29.7123 0 27.491 2.22141 27.491 4.95187C27.491 7.68234 29.7124 9.90375 32.4428 9.90375C33.1097 9.90384 33.7454 9.77025 34.3264 9.53025Z" fill="#C5DEF3"/>
<path d="M25.9242 9.2483H17.3615C16.9725 9.2483 16.657 8.93292 16.657 8.54377C16.657 8.15461 16.9725 7.83923 17.3615 7.83923H25.9242C26.3132 7.83923 26.6287 8.15461 26.6287 8.54377C26.6287 8.93292 26.3132 9.2483 25.9242 9.2483Z" fill="#FA6E62"/>
<path d="M1.99636 39.981C1.98717 40.1043 1.97827 40.2245 1.96955 40.3406C1.87448 41.6243 2.89036 42.7173 4.17755 42.7173H34.7624C35.9227 42.7173 36.8863 41.8221 36.9705 40.6648C36.986 40.4511 37.0029 40.2226 37.0208 39.981H1.99636Z" fill="#C5DEF3"/>
<path d="M5.15982 39.981H1.99642C1.99295 40.0279 1.98948 40.0741 1.9861 40.1202C1.98254 40.1685 1.97898 40.2157 1.97551 40.2629C1.97364 40.2888 1.97167 40.3152 1.96979 40.3407C1.87473 41.6244 2.8906 42.7174 4.17779 42.7174H7.34054C6.05364 42.717 5.03814 41.624 5.1331 40.3406C5.14164 40.2248 5.15064 40.1041 5.15982 39.981Z" fill="#A3CCEF"/>
<path d="M10.671 22.26H8.3393C8.09499 22.26 7.89081 22.4459 7.86793 22.6891L7.64959 25.0106C7.62343 25.2884 7.84196 25.5284 8.12096 25.5284H10.4528C10.6971 25.5284 10.9013 25.3425 10.9242 25.0993L11.1425 22.7778C11.1686 22.5 10.95 22.26 10.671 22.26Z" fill="#67AAE6"/>
<path d="M10.1649 27.6468H7.83296C7.58865 27.6468 7.38446 27.8327 7.36158 28.0759L7.14324 30.3974C7.11708 30.6752 7.33561 30.9152 7.61461 30.9152H9.94646C10.1908 30.9152 10.395 30.7293 10.4178 30.4861L10.6362 28.1645C10.6623 27.8868 10.4439 27.6468 10.1649 27.6468Z" fill="#67AAE6"/>
<path d="M16.3635 22.26H14.0317C13.7874 22.26 13.5832 22.4459 13.5603 22.6891L13.342 25.0106C13.3158 25.2884 13.5343 25.5284 13.8133 25.5284H16.1452C16.3895 25.5284 16.5937 25.3425 16.6166 25.0993L16.8349 22.7778C16.861 22.5 16.6425 22.26 16.3635 22.26Z" fill="#67AAE6"/>
<path d="M15.8569 27.6468H13.5251C13.2808 27.6468 13.0766 27.8327 13.0537 28.0759L12.8354 30.3974C12.8092 30.6752 13.0278 30.9152 13.3068 30.9152H15.6386C15.8829 30.9152 16.0871 30.7293 16.11 30.4861L16.3283 28.1645C16.3546 27.8868 16.136 27.6468 15.8569 27.6468Z" fill="#67AAE6"/>
<path d="M22.5625 16.8732H20.2307C19.9864 16.8732 19.7822 17.0591 19.7593 17.3023L19.5409 19.6238C19.5148 19.9016 19.7333 20.1416 20.0123 20.1416H22.3442C22.5885 20.1416 22.7927 19.9557 22.8155 19.7125L23.0339 17.3909C23.06 17.1132 22.8415 16.8732 22.5625 16.8732Z" fill="#67AAE6"/>
<path d="M22.0559 22.26H19.7241C19.4798 22.26 19.2756 22.4459 19.2527 22.6891L19.0344 25.0106C19.0082 25.2884 19.2267 25.5284 19.5057 25.5284H21.8376C22.0819 25.5284 22.2861 25.3425 22.309 25.0993L22.5273 22.7778C22.5534 22.5 22.3348 22.26 22.0559 22.26Z" fill="#67AAE6"/>
<path d="M21.5493 27.6468H19.2175C18.9732 27.6468 18.769 27.8327 18.7461 28.0759L18.5278 30.3974C18.5016 30.6752 18.7201 30.9152 18.9991 30.9152H21.331C21.5753 30.9152 21.7795 30.7293 21.8024 30.4861L22.0207 28.1645C22.0469 27.8868 21.8283 27.6468 21.5493 27.6468Z" fill="#67AAE6"/>
<path d="M28.2549 16.8732H25.923C25.6787 16.8732 25.4745 17.0591 25.4517 17.3023L25.2333 19.6238C25.2072 19.9016 25.4257 20.1416 25.7047 20.1416H28.0366C28.2809 20.1416 28.4851 19.9557 28.5079 19.7125L28.7263 17.3909C28.7523 17.1132 28.5338 16.8732 28.2549 16.8732Z" fill="#67AAE6"/>
<path d="M27.7483 22.26H25.4165C25.1721 22.26 24.968 22.4459 24.9451 22.6891L24.7267 25.0107C24.7006 25.2885 24.9191 25.5285 25.1981 25.5285H27.53C27.7743 25.5285 27.9785 25.3426 28.0014 25.0994L28.2197 22.7779C28.2458 22.5 28.0273 22.26 27.7483 22.26Z" fill="#67AAE6"/>
<path d="M27.2417 27.6468H24.9099C24.6656 27.6468 24.4614 27.8327 24.4385 28.0759L24.2201 30.3974C24.194 30.6752 24.4125 30.9152 24.6915 30.9152H27.0234C27.2677 30.9152 27.4719 30.7293 27.4947 30.4861L27.7131 28.1645C27.7392 27.8868 27.5206 27.6468 27.2417 27.6468Z" fill="#67AAE6"/>
<path d="M9.65811 33.0334H7.32637C7.08205 33.0334 6.87787 33.2194 6.85499 33.4625L6.63665 35.7841C6.61049 36.0618 6.82902 36.3018 7.10802 36.3018H9.43986C9.68417 36.3018 9.88836 36.1159 9.91123 35.8728L10.1296 33.5512C10.1556 33.2734 9.93711 33.0334 9.65811 33.0334Z" fill="#67AAE6"/>
<path d="M15.3506 33.0334H13.0187C12.7744 33.0334 12.5702 33.2194 12.5474 33.4625L12.329 35.7841C12.3029 36.0618 12.5214 36.3018 12.8004 36.3018H15.1322C15.3766 36.3018 15.5807 36.1159 15.6036 35.8728L15.822 33.5512C15.848 33.2734 15.6296 33.0334 15.3506 33.0334Z" fill="#67AAE6"/>
<path d="M21.0427 33.0335H18.7109C18.4666 33.0335 18.2624 33.2194 18.2395 33.4626L18.0212 35.7841C17.995 36.0619 18.2135 36.3019 18.4925 36.3019H20.8244C21.0687 36.3019 21.2729 36.116 21.2958 35.8728L21.5141 33.5513C21.5403 33.2735 21.3217 33.0335 21.0427 33.0335Z" fill="#A3CCEF"/>
<path d="M33.9473 16.8732H31.6154C31.3711 16.8732 31.1669 17.0591 31.1441 17.3023L30.9257 19.6238C30.8996 19.9016 31.1181 20.1416 31.3971 20.1416H33.7289C33.9733 20.1416 34.1774 19.9557 34.2003 19.7125L34.4187 17.3909C34.4448 17.1132 34.2263 16.8732 33.9473 16.8732Z" fill="#67AAE6"/>
<path d="M33.4407 22.26H31.1088C30.8645 22.26 30.6603 22.4459 30.6375 22.6891L30.4191 25.0107C30.393 25.2885 30.6115 25.5285 30.8905 25.5285H33.2224C33.4667 25.5285 33.6709 25.3426 33.6937 25.0994L33.9121 22.7779C33.9382 22.5 33.7197 22.26 33.4407 22.26Z" fill="#67AAE6"/>
<path d="M11.178 16.8732H8.84614C8.60183 16.8732 8.39764 17.0591 8.37477 17.3023L8.15642 19.6238C8.13027 19.9016 8.3488 20.1416 8.6278 20.1416H10.9596C11.204 20.1416 11.4081 19.9557 11.431 19.7125L11.6494 17.3909C11.6754 17.1132 11.457 16.8732 11.178 16.8732Z" fill="#A3CCEF"/>
<path d="M16.8701 16.8732H14.5383C14.294 16.8732 14.0898 17.0591 14.0669 17.3023L13.8486 19.6238C13.8224 19.9016 14.0409 20.1416 14.3199 20.1416H16.6518C16.8961 20.1416 17.1003 19.9557 17.1231 19.7125L17.3415 17.3909C17.3677 17.1132 17.1492 16.8732 16.8701 16.8732Z" fill="#A3CCEF"/>
<path d="M32.9341 27.6468H30.6022C30.3579 27.6468 30.1537 27.8327 30.1309 28.0759L29.9125 30.3974C29.8864 30.6752 30.1049 30.9152 30.3839 30.9152H32.7158C32.9601 30.9152 33.1643 30.7293 33.1871 30.4861L33.4055 28.1645C33.4316 27.8868 33.2131 27.6468 32.9341 27.6468Z" fill="#67AAE6"/>
<path d="M26.7351 33.0336H24.4033C24.159 33.0336 23.9548 33.2195 23.9319 33.4627L23.7136 35.7842C23.6874 36.062 23.9059 36.302 24.1849 36.302H26.5168C26.7611 36.302 26.9653 36.1161 26.9881 35.8729L27.2065 33.5514C27.2325 33.2736 27.0141 33.0336 26.7351 33.0336Z" fill="#A3CCEF"/>
<path d="M32.4275 33.0336H30.0957C29.8513 33.0336 29.6472 33.2195 29.6243 33.4627L29.4059 35.7842C29.3798 36.062 29.5983 36.302 29.8773 36.302H32.2091C32.4535 36.302 32.6576 36.1161 32.6805 35.8729L32.8989 33.5514C32.925 33.2736 32.7064 33.0336 32.4275 33.0336Z" fill="#A3CCEF"/>
<path d="M10.966 8.68765C8.54491 7.42512 7.60235 4.42831 8.86497 2.00722C9.23388 1.29978 9.75091 0.719186 10.3583 0.282593C8.43504 0.962843 7.05298 2.79856 7.05298 4.9519C7.05298 7.68247 9.27438 9.90378 12.0048 9.90378C12.6717 9.90378 13.3074 9.77018 13.8884 9.53009C13.9405 9.42087 13.9829 9.30622 14.0156 9.18753C13.0061 9.34587 11.9396 9.1954 10.966 8.68765Z" fill="#A3CCEF"/>
<path d="M31.4041 8.68765C28.983 7.42512 28.0404 4.42822 29.303 2.00722C29.6719 1.29978 30.1889 0.719186 30.7963 0.282593C28.873 0.962843 27.491 2.79856 27.491 4.9519C27.491 7.68247 29.7124 9.90378 32.4428 9.90378C33.1097 9.90378 33.7454 9.77018 34.3264 9.53009C34.3785 9.42087 34.4209 9.30622 34.4536 9.18753C33.4442 9.34587 32.3777 9.1954 31.4041 8.68765Z" fill="#A3CCEF"/>
</g>
<defs>
<clipPath id="clip0">
<rect width="48" height="48" fill="white"/>
</clipPath>
</defs>
</svg>
