<svg width="28" height="31" viewBox="0 0 28 31" fill="none" xmlns="http://www.w3.org/2000/svg">
<path d="M27.4909 6.71694H25.4545C25.1745 6.71694 24.9455 6.9495 24.9455 7.23374V7.75053C24.9455 7.4663 24.7164 7.23374 24.4364 7.23374H22.9091C22.6418 7.23374 22.4191 7.44692 22.4 7.71823L22.3618 8.26733H21.3818V7.23374C21.3818 6.9495 21.1527 6.71694 20.8727 6.71694H18.8364C18.5564 6.71694 18.3273 6.9495 18.3273 7.23374V10.3345C18.3273 10.6188 18.5564 10.8513 18.8364 10.8513H20.8727C21.1527 10.8513 21.3818 10.6188 21.3818 10.3345V9.30093H22.2982L22.0182 13.5258C21.9736 14.0619 21.5282 14.4689 21 14.4689H17.8182V14.2493C17.8182 14.049 17.7036 13.8681 17.5255 13.7842C16.8382 13.4547 16.1064 13.2286 15.3555 13.1059C15.2727 13.0929 15.19 13.0994 15.1136 13.1317C14.8336 13.0477 14.5473 12.9831 14.2545 12.9508V11.5425C14.4073 11.465 14.5536 11.3746 14.6936 11.2777C16.4055 10.0632 17.8182 8.84227 17.8182 6.21952V5.68334C17.8182 4.11357 17.1755 2.60839 16.0491 1.53603C14.0636 -0.33736 11.0473 -0.51824 8.85818 1.10968C6.65 0.702697 4.53727 2.19495 4.13636 4.43656C4.09182 4.67558 4.07273 4.92106 4.07273 5.16008V12.9121C4.07273 13.1963 4.30182 13.4289 4.58182 13.4289C6.52909 13.4353 8.4 12.673 9.80636 11.3035C9.92727 11.3875 10.0545 11.4586 10.1818 11.5296V12.9379C9.88909 12.9702 9.60273 13.0348 9.32273 13.1188C9.24636 13.0929 9.16364 13.08 9.08091 13.0929C8.33 13.2157 7.59818 13.4418 6.91091 13.7712C6.73273 13.8552 6.61818 14.0361 6.61818 14.2364V14.2557C4.69 16.4521 3.60818 19.2751 3.56364 22.2144C3.56364 23.6292 3.62727 25.2635 4.04091 26.3488H3.05455V25.3152C3.05455 25.031 2.82545 24.7984 2.54545 24.7984H0.509091C0.229091 24.7984 0 25.031 0 25.3152V28.416C0 28.7002 0.229091 28.9328 0.509091 28.9328H2.54545C2.82545 28.9328 3.05455 28.7002 3.05455 28.416V27.3824H5.96273C5.39 28.5 5.09091 29.7403 5.09091 31H6.10909C6.10909 30.1085 6.28727 29.23 6.61818 28.4095V28.416C6.61818 28.7002 6.84727 28.9328 7.12727 28.9328H9.16364C9.44364 28.9328 9.67273 28.7002 9.67273 28.416V26.3488H16.0491L16.3418 26.7235C17.2964 27.938 17.8182 29.4496 17.8182 31H18.8364C18.8364 29.2106 18.2318 27.4729 17.1373 26.0775L16.7491 25.5865L16.5518 24.9922C16.0809 23.5452 16.1255 21.9754 16.6791 20.5607L16.7045 20.4896C17.3345 20.2894 17.78 19.7144 17.8182 19.0426V19.0232L23.3355 17.8216C24.2709 17.6149 24.9391 16.7751 24.9455 15.7997V10.3345C24.9455 10.6188 25.1745 10.8513 25.4545 10.8513H27.4909C27.7709 10.8513 28 10.6188 28 10.3345V7.23374C28 6.9495 27.7709 6.71694 27.4909 6.71694ZM20.3636 9.81773H19.3455V7.75053H20.3636V9.81773ZM2.03636 27.9057H1.01818V25.8385H2.03636V27.9057ZM6.61818 19.0038C5.94364 20.5478 5.72091 24.5659 5.98182 26.1356L6.02 26.3553H5.17364C4.88091 25.9418 4.58182 24.8759 4.58182 22.2209C4.62636 19.947 5.33273 17.7312 6.61818 15.8643V19.0038ZM11.9127 1.03862C14.3245 0.870656 16.45 2.64715 16.7618 5.08256L13.9745 3.66783C13.8791 3.61615 13.7645 3.60323 13.6564 3.62261L7.74454 4.68204C8.15818 2.64715 9.87 1.1549 11.9127 1.03862ZM5.09091 12.3823V5.16654C5.09091 3.56447 6.29364 2.22725 7.86545 2.07867C7.05091 3.09935 6.61182 4.37197 6.61818 5.68334V6.21306C6.61818 8.42883 7.63 9.64331 8.97273 10.7027C7.89727 11.6782 6.53545 12.2725 5.09091 12.3823ZM7.63636 6.21306V5.74794L13.6691 4.66912L16.8 6.25828C16.7873 8.18335 15.9218 9.13943 14.1145 10.425C12.9755 11.226 11.4673 11.226 10.3345 10.425C8.50182 9.13297 7.63636 8.17043 7.63636 6.21306ZM9.67273 14.0942C10.0036 14.0038 10.3473 13.9521 10.6909 13.9521C10.9709 13.9521 11.2 13.7196 11.2 13.4353V11.9301C11.8682 12.111 12.5682 12.111 13.2364 11.9301V13.4353C13.2364 13.7196 13.4655 13.9521 13.7455 13.9521C14.0891 13.9521 14.4327 13.9973 14.7636 14.0942V14.9211L12.2182 15.4767L9.67273 14.9211V14.0942ZM6.90455 24.863C6.87273 23.3191 7.00636 21.7752 7.29909 20.2571C7.43273 20.3475 7.57273 20.425 7.72545 20.4896C8.24091 21.8785 8.26 23.4031 7.78909 24.8049H7.12727C7.05091 24.8049 6.97455 24.8243 6.90455 24.863ZM8.65454 27.9057H7.63636V25.8385H8.65454V27.9057ZM9.67273 25.3217C9.67273 25.0374 9.44364 24.8049 9.16364 24.8049H8.85818C9.24636 23.4547 9.24636 22.0206 8.85818 20.6705H15.5591C15.0818 22.1821 15.0882 23.8165 15.5845 25.3217H9.67273ZM16.8 19.0426C16.8 19.3204 16.3673 19.6369 15.7818 19.6369H8.65454C8.06909 19.6369 7.63636 19.3204 7.63636 19.0426V14.5852C7.96727 14.4495 8.30455 14.3333 8.65454 14.2493V15.341C8.65454 15.5865 8.82 15.7932 9.05545 15.8449L12.11 16.5103C12.18 16.5232 12.2564 16.5232 12.3264 16.5103L15.3809 15.8449C15.6164 15.7932 15.7818 15.58 15.7818 15.341V14.2493C16.1318 14.3333 16.4691 14.4495 16.8 14.5852V19.0426ZM23.9273 15.7997C23.9273 16.2842 23.59 16.7041 23.1255 16.8074L17.8182 17.9638V15.5025H21.0064C22.0627 15.509 22.9473 14.6821 23.0364 13.6097L23.3864 8.26733H23.9273V15.7997ZM26.9818 9.81773H25.9636V7.75053H26.9818V9.81773Z" fill="white"/>
</svg>
