<svg width="38" height="32" viewBox="0 0 38 32" fill="none" xmlns="http://www.w3.org/2000/svg">
<path d="M2.35357 23.4652C1.35748 23.6508 0.704869 24.5864 0.895691 25.5554C1.06361 26.4093 1.83453 27.0033 2.69705 27.0033C2.81154 27.0033 2.92985 26.9922 3.04434 26.9699L10.6009 25.5591C11.0321 25.4774 11.4176 25.251 11.6924 24.9168L14.1718 21.8749C14.5635 21.3943 14.4078 20.6744 13.8525 20.3986C12.9102 19.9359 11.3264 19.6248 10.663 20.4383L9.70305 21.6155C9.4055 21.9804 8.98824 22.228 8.52539 22.3143L2.35357 23.4652Z" fill="#A02CFA"/>
<path d="M29.267 7.94638C31.4886 7.94638 33.2895 6.19442 33.2895 4.03327C33.2895 1.87212 31.4886 0.120163 29.267 0.120163C27.0454 0.120163 25.2445 1.87212 25.2445 4.03327C25.2445 6.19442 27.0454 7.94638 29.267 7.94638Z" fill="#A02CFA"/>
<path d="M20.4892 3.05317C20.0656 2.62993 19.6726 2.46286 19.2413 2.46286C19.0848 2.46286 18.9284 2.48514 18.7604 2.52227L11.8565 4.11498C10.9024 4.33403 10.3147 5.2659 10.5398 6.19034C10.7345 6.98484 11.4596 7.51946 12.2649 7.51946C12.4023 7.51946 12.5397 7.50461 12.6771 7.4712L17.1573 6.43888C18.0238 6.23923 18.8574 6.43705 19.4687 7.08286C20.3886 8.05482 20.4638 9.66651 19.5367 10.6316C17.6598 12.5854 15.7829 14.5381 13.9059 16.4929C13.8678 16.5338 13.8335 16.5746 13.7991 16.6154C13.0892 17.4953 13.3068 18.8764 14.3754 19.3999L15.3589 19.8883C18.8175 21.6059 20.0277 25.9404 17.959 29.2012C17.4285 30.0403 17.6957 31.1392 18.5582 31.659C18.8597 31.8409 19.1917 31.9263 19.5199 31.9263C20.1343 31.9263 20.7373 31.6256 21.0846 31.0798L26.0002 23.3315C26.2712 22.9046 26.3437 22.3885 26.2025 21.9096C26.0613 21.427 25.7216 21.026 25.2598 20.7995L24.3001 20.3246C22.2745 19.3222 21.8062 16.6406 23.3722 15.011C24.5835 13.7504 26.5614 13.6358 27.9103 14.748L29.5266 16.0808C29.8586 16.3555 30.267 16.4892 30.6715 16.4892C31.1066 16.4892 31.5417 16.3332 31.8813 16.0288L36.4801 11.8595C37.1976 11.2098 37.2396 10.1183 36.5717 9.42033C36.2206 9.05649 35.7474 8.87086 35.2741 8.87086C34.8429 8.87086 34.4078 9.02308 34.0681 9.33123L30.6257 12.4461C30.6219 12.4498 21.9967 4.55679 20.4892 3.05317Z" fill="#A02CFA"/>
</svg>
