<svg id="Layer_1" data-name="Layer 1" xmlns="http://www.w3.org/2000/svg" viewBox="0 0 450.47 352.04"><defs><style>.cls-1{fill:#fff;}</style></defs><title>comment</title><path class="cls-1" d="M402,2.55H48.27a44,44,0,0,0-44,44V246.94a44.05,44.05,0,0,0,44,44H55l92.78,56.76a13,13,0,0,0,19.78-11l.39-45.78H402a44,44,0,0,0,44-44V46.55A44,44,0,0,0,402,2.55Zm18,244.39a18,18,0,0,1-18,18H155.1a13,13,0,0,0-13,12.89l-.3,35.71L65.49,266.85a12.85,12.85,0,0,0-6.79-1.91H48.27a18,18,0,0,1-18-18V46.55a18,18,0,0,1,18-18H402a18,18,0,0,1,18,18Z"/><circle class="cls-1" cx="123.15" cy="143.25" r="31.29"/><circle class="cls-1" cx="220.74" cy="143.25" r="31.29"/><circle class="cls-1" cx="319.65" cy="143.25" r="31.29"/></svg>