<svg id="Layer_1" data-name="Layer 1" xmlns="http://www.w3.org/2000/svg" viewBox="0 0 512 469.88"><defs><style>.cls-1{fill:#fff;}</style></defs><title>fav</title><path class="cls-1" d="M375.47,2C315.41,2,275.7,34.79,256,56.49,236.3,34.79,196.59,2,136.53,2,54.58,2,0,78.2,0,163.57,0,227.45,32.21,351.9,247.93,467.64a17.09,17.09,0,0,0,16.14,0C479.79,351.9,512,227.45,512,163.57,512,76.22,455.8,2,375.47,2ZM256,433.18c-103.62-57-221.87-151.9-221.87-269.61,0-65.47,39.32-127.44,102.4-127.44,47.86,0,87.46,29.34,105,57a17.07,17.07,0,0,0,29,0c.35-.57,35.94-56.93,105-56.93,63.55,0,102.4,62.59,102.4,127.44C477.87,281.28,359.62,376.21,256,433.18Z"/></svg>