<svg width="422" height="399" viewBox="0 0 422 399" fill="none" xmlns="http://www.w3.org/2000/svg">
<g clip-path="url(#clip0)">
<path d="M29.6367 380.23H421.356" stroke="#3F3D46" stroke-width="2" stroke-linecap="round"/>
<path d="M74.0918 368.021H322.138" stroke="#3F3D46" stroke-width="2" stroke-linecap="round"/>
<path d="M305.509 86.6204C302.223 90.0968 297.861 92.3715 293.126 93.0848C288.39 93.798 283.552 92.9049 279.383 90.5466C275.215 88.1883 271.961 84.5127 270.144 80.0917C268.321 75.6707 268.044 70.7742 269.339 66.1798C270.64 61.5853 273.449 57.5563 277.315 54.7353C281.181 51.9208 285.884 50.475 290.671 50.6421C295.458 50.8091 300.052 52.5698 303.711 55.6414C307.377 58.7194 309.903 62.9283 310.882 67.6063C311.636 71.2498 311.429 75.0281 310.296 78.5688" stroke="white" stroke-width="2" stroke-linecap="round" stroke-linejoin="round"/>
<path d="M310.244 78.5688C313.517 77.9262 316.384 80.0853 317.086 83.3496C317.247 84.1207 317.254 84.924 317.112 85.6951C316.964 86.4726 316.668 87.2116 316.23 87.8734C315.798 88.5353 315.231 89.1008 314.58 89.5506C313.923 89.9939 313.189 90.3088 312.409 90.463C310.985 90.7843 309.49 90.5723 308.215 89.859C306.939 89.1457 305.973 87.9891 305.509 86.614" stroke="white" stroke-width="2" stroke-linecap="round" stroke-linejoin="round"/>
<path d="M268.611 69.412C265.744 68.3067 264.81 65.3894 265.86 62.4721C266.086 61.7781 266.446 61.1419 266.923 60.5893C267.4 60.0367 267.986 59.5869 268.637 59.2656C269.294 58.9443 270.003 58.7579 270.731 58.7194C271.459 58.6808 272.187 58.7836 272.876 59.0343" stroke="white" stroke-width="2" stroke-linecap="round" stroke-linejoin="round"/>
<path d="M278.668 62.4142C279.184 62.4142 279.602 61.9966 279.602 61.4825C279.602 60.9684 279.184 60.5508 278.668 60.5508C278.153 60.5508 277.734 60.9684 277.734 61.4825C277.734 61.9966 278.146 62.4142 278.668 62.4142Z" fill="white" stroke="white" stroke-linecap="round" stroke-linejoin="round"/>
<path d="M295.271 69.5341C295.786 69.5341 296.205 69.1164 296.205 68.6023C296.205 68.0883 295.786 67.6706 295.271 67.6706C294.756 67.6706 294.337 68.0883 294.337 68.6023C294.337 69.1164 294.756 69.5341 295.271 69.5341Z" fill="white" stroke="white" stroke-linecap="round" stroke-linejoin="round"/>
<path d="M288.371 62.1251L286.438 66.2055C286.438 66.2055 283.165 63.1147 281.819 64.5733C280.472 66.032 281.935 71.9181 281.935 71.9181" stroke="white" stroke-width="2" stroke-linecap="round" stroke-linejoin="round"/>
<path d="M287.147 76.6475C287.147 76.6475 290.246 78.3375 291.477 75.131" stroke="white" stroke-width="2" stroke-linecap="round" stroke-linejoin="round"/>
<path d="M278.488 53.9C278.488 53.9 292.23 63.7572 301.173 59.4391C301.173 59.4391 297.726 74.4884 310.238 78.5688C310.238 78.5688 316.204 64.9781 302.345 54.6004C290.536 45.797 278.488 53.9 278.488 53.9Z" fill="white" stroke="white" stroke-linecap="round" stroke-linejoin="round"/>
<path d="M302.584 54.7739C302.584 54.7739 297.03 39.9623 275.917 46.4331" stroke="white" stroke-width="2" stroke-linecap="round" stroke-linejoin="round"/>
<path d="M311.294 82.1287C311.906 82.3536 312.409 82.8099 312.692 83.3946C312.976 83.9858 313.021 84.6605 312.808 85.2774C312.595 85.8879 312.151 86.3891 311.571 86.6718C310.991 86.9545 310.321 86.9995 309.709 86.7939" stroke="white" stroke-width="2" stroke-linecap="round" stroke-linejoin="round"/>
<path d="M302.867 55.1016C304.156 54.0285 307.764 52.4028 311.887 54.459" stroke="white" stroke-width="2" stroke-linecap="round" stroke-linejoin="round"/>
<path d="M300.612 41.5881C298.679 44.801 304.864 51.1626 302.545 54.7611" stroke="white" stroke-width="2" stroke-linecap="round"/>
<path d="M327.291 154.683C325.359 159.181 315.05 179.422 296.617 182.809C296.617 182.809 306.733 131.659 280.188 119.238C280.601 126.82 283.758 138.31 267.503 155.454C267.503 155.454 258.322 215.06 281.593 217.508C291.824 218.614 308.143 209.399 321.3 198.61C337.497 185.373 345.982 169.135 345.982 169.135" fill="white"/>
<path d="M327.291 154.683C325.359 159.181 315.05 179.422 296.617 182.809C296.617 182.809 306.733 131.659 280.188 119.238C280.601 126.82 283.758 138.31 267.503 155.454C267.503 155.454 258.322 215.06 281.593 217.508C291.824 218.614 308.143 209.399 321.3 198.61C337.497 185.373 345.982 169.135 345.982 169.135C345.982 169.135 330.951 155.84 327.291 154.683Z" stroke="#3F3D46" stroke-width="2" stroke-linecap="round" stroke-linejoin="round"/>
<path d="M287.991 183.921C290.89 183.921 296.618 182.809 296.618 182.809L287.991 183.921Z" fill="white"/>
<path d="M287.991 183.921C290.89 183.921 296.618 182.809 296.618 182.809" stroke="#3F3D46" stroke-width="2" stroke-linecap="round" stroke-linejoin="round"/>
<path d="M391.816 120.748L360.878 97.1588C357.798 94.8133 353.398 95.3981 351.04 98.4697L327.388 129.327C325.037 132.398 325.623 136.787 328.703 139.139L359.641 162.728C362.72 165.074 367.121 164.489 369.479 161.417L393.13 130.56C395.482 127.489 394.895 123.093 391.816 120.748Z" fill="#3F3D46"/>
<path d="M330.893 139.904L358.623 161.051L352.193 169.437C351.065 170.908 349.39 171.879 347.548 172.123C345.705 172.367 343.837 171.872 342.361 170.748L325.778 158.102C324.296 156.977 323.329 155.306 323.085 153.468C322.84 151.631 323.336 149.767 324.463 148.296L330.893 139.904Z" fill="#3F3D46"/>
<path d="M339.533 130.162L349.177 117.509C350.299 116.083 351.935 115.145 353.739 114.907C355.543 114.669 357.366 115.145 358.829 116.231L359.299 116.578C360.742 117.683 361.689 119.322 361.934 121.127C362.173 122.933 361.689 124.758 360.588 126.204L350.943 138.863" stroke="white" stroke-width="2" stroke-linecap="round" stroke-linejoin="round"/>
<path d="M223.177 360.278C223.177 360.278 207.566 399 219.665 399H268.083C269.461 399 270.782 398.46 271.762 397.503C272.741 396.545 273.314 395.241 273.34 393.866L273.456 387.8C273.482 386.907 273.282 386.02 272.87 385.223C272.464 384.426 271.858 383.751 271.117 383.25L236.855 360.683L223.177 360.278Z" fill="#3F3D46"/>
<path d="M249.856 369.306C249.895 370.598 249.476 371.857 248.677 372.873C247.872 373.888 246.738 374.582 245.469 374.845" stroke="#C6E700" stroke-width="2" stroke-linecap="round" stroke-linejoin="round"/>
<path d="M254.424 372.519C254.424 372.519 254.714 376.837 249.979 378.058" stroke="#C6E700" stroke-width="2" stroke-linecap="round" stroke-linejoin="round"/>
<path d="M220.78 366.749C222.185 370.071 226.218 372.403 230.895 372.403C236.803 372.403 241.713 368.439 241.713 363.889" stroke="white" stroke-width="2" stroke-linecap="round" stroke-linejoin="round"/>
<path d="M246.448 366.98C246.448 366.98 241.48 355.548 247.266 355.902C253.058 356.249 246.448 366.98 246.448 366.98Z" stroke="#C6E700" stroke-width="2" stroke-linecap="round" stroke-linejoin="round"/>
<path d="M246.39 366.98C246.39 366.98 247.795 354.617 252.646 357.765C257.497 360.914 246.39 366.98 246.39 366.98Z" stroke="#C6E700" stroke-width="2" stroke-linecap="round" stroke-linejoin="round"/>
<path d="M230.65 365.586C227.751 365.772 226.147 364.866 225.123 363.915C224.098 362.964 223.415 361.711 223.177 360.336L207.45 264.693C207.16 262.926 207.263 261.121 207.747 259.392C208.23 257.67 209.08 256.07 210.24 254.701C211.4 253.339 212.849 252.24 214.479 251.488C216.109 250.736 217.881 250.344 219.678 250.344H230.264C241.9 250.344 245.643 260.26 244.651 271.807L237.286 359.751C236.977 362.784 233.099 365.425 230.65 365.586Z" fill="#E2E2E2"/>
<path d="M208.101 268.742L225.818 268.099L244.502 265.85V270.669C243.536 271.845 239.47 274.57 231.294 276.453C222.919 278.38 213.255 278.059 209.389 276.774L208.101 268.742Z" fill="url(#paint0_linear)"/>
<path d="M231.294 301.192C231.294 301.192 237.08 306.089 241.88 301.192" stroke="#3F3D46" stroke-width="2" stroke-miterlimit="10" stroke-linecap="round"/>
<path d="M48.1982 147.274C61.4574 151.817 132.431 173.395 135.884 174.609C143.023 177.019 154.285 176.242 157.216 168.935C158.885 164.759 158.698 163.39 158.962 160.768C159.516 154.805 159.845 145.102 149.794 143.444C149.794 143.444 87.2993 136.697 74.0917 134.769" fill="#E2E2E2"/>
<path d="M259.9 249.528C264.462 262.637 243.626 270.143 226.14 270.669C207.663 271.196 186.518 265.529 188.56 252.735C188.56 252.735 191.131 229.872 194.7 212.438C197.683 197.974 190.312 196.284 183.006 196.4C175.694 196.515 152.249 199.317 151.72 199.375C143.351 200.3 132.398 177.906 132.398 159.824C133.365 139.582 135.62 128.016 145.606 124.803C146.424 125.15 207.508 153.706 216.161 158.84C224.813 163.975 236.803 176.981 243.761 199.78C250.72 222.585 256.447 239.613 259.9 249.528Z" fill="#855BFC"/>
<path d="M195.215 210.588C195.215 210.588 207.328 217.637 223.061 212.098" stroke="white" stroke-width="2" stroke-linecap="round" stroke-linejoin="round"/>
<path d="M195.17 192.615C195.17 192.615 195.537 196.123 193.282 199.657" stroke="white" stroke-width="2" stroke-linecap="round" stroke-linejoin="round"/>
<path d="M148.183 125.767L158.814 131.229C155.077 132.617 149.149 142.352 149.149 151.47C149.149 168.499 149.613 169.784 153.337 184.884C151.553 177.649 143.995 173.639 141.418 158.538C140.658 154.092 140.046 146.959 142.385 138.94C144.801 130.663 145.606 127.694 148.183 125.767Z" fill="url(#paint1_linear)"/>
<path d="M248.439 92.5257L251.267 94.2736C244.773 93.888 236.056 93.9587 230.315 97.0174C224.575 100.076 219.801 104.651 216.509 110.255C196.626 95.3274 173.883 96.3748 156.868 113.872C143.654 127.521 141.74 140.225 145.606 164.322L119.513 168.177C115.969 142.153 116.614 112.272 134.763 92.5322C162.48 64.0657 213.822 66.983 248.439 92.5257Z" fill="white" stroke="#3F3D46" stroke-width="2" stroke-linecap="round" stroke-linejoin="round"/>
<path d="M122.715 235.443L161.269 230.392C165.109 229.891 167.808 226.383 167.306 222.553L162.242 184.1C161.739 180.271 158.221 177.578 154.381 178.079L115.828 183.13C111.988 183.631 109.289 187.14 109.791 190.97L114.855 229.422C115.364 233.245 118.882 235.944 122.715 235.443Z" fill="#3F3D46"/>
<path d="M152.268 178.896L117.709 183.419L116.33 172.971C116.085 171.133 116.588 169.276 117.722 167.805C118.856 166.333 120.524 165.376 122.367 165.131L143.035 162.426C144.878 162.182 146.74 162.683 148.215 163.814C149.691 164.945 150.651 166.609 150.896 168.447L152.268 178.896Z" fill="#3F3D46"/>
<path d="M154.014 191.31L156.063 207.118C156.295 208.917 155.805 210.736 154.697 212.181C153.589 213.621 151.959 214.572 150.155 214.816H149.568C147.764 215.047 145.941 214.559 144.491 213.454C143.048 212.348 142.095 210.723 141.85 208.924L139.808 193.174" stroke="white" stroke-width="2" stroke-miterlimit="10" stroke-linecap="round" stroke-linejoin="round"/>
<path d="M145.69 179.416C146.044 179.371 146.296 179.05 146.25 178.696C146.205 178.343 145.883 178.092 145.529 178.137L145.69 179.416ZM117.664 182.95L145.69 179.416L145.529 178.144L117.503 181.678L117.664 182.95Z" fill="white"/>
<path d="M283.049 129.404C282.624 136.164 280.26 142.66 276.22 148.135C272.181 153.61 266.653 157.825 260.274 160.286C253.896 162.747 246.938 163.358 240.218 162.034C233.505 160.71 227.307 157.517 222.365 152.832C217.424 148.141 213.945 142.153 212.327 135.572C210.717 128.992 211.039 122.091 213.262 115.684C215.484 109.278 219.511 103.636 224.865 99.4143C230.225 95.1989 236.687 92.5836 243.497 91.8832C245.462 91.6968 247.44 91.6583 249.418 91.7675C254.128 92.0438 258.734 93.239 262.974 95.2889C267.213 97.3323 271.008 100.185 274.133 103.681C277.257 107.177 279.654 111.251 281.181 115.665C282.714 120.08 283.346 124.745 283.049 129.404Z" fill="white" stroke="#3F3D46" stroke-width="2"/>
<path d="M81.8747 126.384C78.6018 131.833 71.4568 137.089 62.3081 140.36C60.8005 140.861 59.2156 141.394 57.6113 141.806C44.3393 145.301 31.8919 143.727 26.0934 138.451L25.9259 138.4C24.5085 137.115 23.4841 135.45 22.9751 133.606C20.5655 124.636 32.2011 113.77 48.9523 109.361C65.7034 104.953 81.1596 108.648 83.5691 117.619C84.3487 120.375 83.6851 123.408 81.8747 126.384Z" stroke="#3F3D46" stroke-width="2" stroke-linecap="round" stroke-linejoin="round"/>
<path d="M81.8746 126.384C81.8746 126.384 71.8497 144.498 56.7221 147.274C38.386 150.686 27.5944 139.91 26.0933 138.451C31.8982 143.727 44.3456 145.295 57.6112 141.806C59.2154 141.401 60.8003 140.861 62.3079 140.36C71.4566 137.083 78.5952 131.826 81.8746 126.384Z" fill="#3F3D46"/>
<path d="M56.6895 114.868L59.0282 115.614C60.0461 115.935 60.6066 117.021 60.2845 118.036L60.1814 118.364C59.8593 119.379 60.4198 120.465 61.4378 120.787L61.8501 120.922C62.8165 121.23 63.3513 122.265 63.0484 123.228C62.7392 124.192 63.2739 125.227 64.2468 125.535L64.3305 125.561C65.3485 125.882 65.909 126.968 65.5804 127.977L65.1166 129.423" stroke="#3F3D46" stroke-width="2" stroke-linecap="round" stroke-linejoin="round"/>
<path d="M63.9766 112.407L66.3153 113.153C67.3332 113.474 67.8937 114.56 67.5716 115.575L67.4685 115.903C67.1464 116.918 67.7069 118.004 68.7249 118.326L69.1372 118.46C70.1036 118.769 70.6384 119.803 70.3355 120.767C70.0263 121.731 70.561 122.766 71.5339 123.074L71.6177 123.1C72.6356 123.421 73.1961 124.507 72.8675 125.516L72.4037 126.962" stroke="#3F3D46" stroke-width="2" stroke-linecap="round" stroke-linejoin="round"/>
<path d="M357.876 327.172C366.757 327.172 373.957 319.991 373.957 311.133C373.957 302.275 366.757 295.094 357.876 295.094C348.994 295.094 341.794 302.275 341.794 311.133C341.794 319.991 348.994 327.172 357.876 327.172Z" stroke="#855BFC" stroke-width="2"/>
<path d="M361.425 334.767C367.214 334.767 371.908 330.086 371.908 324.312C371.908 318.538 367.214 313.858 361.425 313.858C355.636 313.858 350.943 318.538 350.943 324.312C350.943 330.086 355.636 334.767 361.425 334.767Z" fill="#C6E700"/>
<path d="M268.341 157.253C267.825 155.454 265.332 154.362 264.153 154.04L270.273 149.221C273.063 145.153 278.778 136.562 279.293 134.763C279.938 132.514 281.226 124.803 281.226 124.16C281.226 123.518 277.038 119.02 278.971 118.698C280.517 118.441 283.694 121.378 284.125 123.196C284.338 123.518 284.834 124.674 285.092 126.731C285.414 129.301 283.803 136.048 282.837 141.189C282.064 145.301 275.859 152.113 272.851 155.004C271.562 156.501 268.856 159.053 268.341 157.253Z" fill="white"/>
<path d="M248.368 94.28C248.626 94.28 249.766 95.2439 249.978 96.2078C248.903 95.9957 246.371 95.4367 244.824 94.9226C242.891 94.28 237.415 96.8503 231.939 97.1716C226.462 97.4929 230.65 92.9948 230.65 92.3523C230.65 91.7097 234.181 89.7819 239.67 89.7819C246.757 89.7819 248.046 94.28 248.368 94.28Z" fill="white"/>
<path d="M232.906 108.096C244.709 102.743 247.402 95.2439 247.402 90.7458C250.623 91.0671 257.71 92.031 259.965 93.3161C248.69 101.027 240.392 113.525 248.368 117.734C256.422 121.988 274.139 112.594 278.327 108.096C278.971 108.738 282.837 115.164 283.159 119.983C280.26 119.341 274.655 119.983 267.696 130.265C260.738 140.546 265.441 151.258 268.341 156.932C266.298 158.326 262.542 161.302 253.844 163.037C244.18 164.964 234.961 162.169 232.906 161.109C222.275 155.647 217.443 149.221 214.866 144.723C210.356 135.727 210.034 126.088 211.322 119.983C212.643 113.725 213.899 112.272 214.866 110.023C217.765 111.308 222.275 112.915 232.906 108.096Z" fill="#C6E700"/>
<path d="M83.8073 187.011C84.0972 186.806 84.1617 186.401 83.9555 186.112C83.7493 185.823 83.3434 185.758 83.0535 185.964L83.8073 187.011ZM0.431699 179.133C0.0966763 179.249 -0.0837207 179.615 0.0322487 179.949L1.93286 185.418C2.04883 185.752 2.41607 185.932 2.75109 185.816C3.08611 185.701 3.26651 185.334 3.15054 185L1.46898 180.142L6.3397 178.465C6.67472 178.349 6.85512 177.983 6.73915 177.649C6.62318 177.315 6.25594 177.135 5.92092 177.251L0.431699 179.133ZM32.3233 195.102L32.0398 195.68L32.3233 195.102ZM54.0869 189.897L53.6552 190.379L54.0869 189.897ZM46.0657 189.46L45.692 188.933L46.0657 189.46ZM83.0599 185.97L68.8923 196.136L69.6461 197.177L83.8137 187.011L83.0599 185.97ZM61.6443 195.757L54.5186 189.421L53.6617 190.379L60.7874 196.714L61.6443 195.757ZM45.692 188.933L38.4955 194.035L39.2428 195.082L46.4394 189.98L45.692 188.933ZM32.6003 194.523L0.927791 179.165L0.367272 180.322L32.0463 195.686L32.6003 194.523ZM38.4955 194.041C36.7688 195.269 34.5074 195.455 32.6003 194.53L32.0398 195.686C34.3721 196.817 37.136 196.586 39.2428 195.089L38.4955 194.041ZM54.5186 189.421C52.051 187.23 48.3915 187.024 45.6984 188.939L46.4458 189.987C48.6492 188.425 51.6451 188.586 53.6617 190.385L54.5186 189.421ZM68.8859 196.13C66.6825 197.71 63.6673 197.556 61.6443 195.751L60.7874 196.708C63.2678 198.912 66.9466 199.105 69.6397 197.171L68.8859 196.13Z" fill="#C6E700"/>
<path d="M354.28 160.01C354.564 160.228 354.97 160.171 355.182 159.888C355.401 159.605 355.343 159.2 355.06 158.988L354.28 160.01ZM329.798 141.375L354.28 160.01L355.06 158.988L330.577 140.353L329.798 141.375Z" fill="white"/>
<path d="M146.515 44.1455C143.268 33.665 138.126 17.0285 136.471 11.3866C136.123 10.2042 136.644 9.11184 137.753 8.57207L153.46 0.963867C155.696 -0.115675 158.266 1.61288 158.105 4.08683C157.023 20.3763 155.844 43.5351 155.27 46.401C154.749 49.0099 152.036 47.6926 149.536 46.883C148.19 46.4524 146.934 45.495 146.515 44.1455Z" stroke="#855BFC" stroke-width="2"/>
</g>
<defs>
<linearGradient id="paint0_linear" x1="208.731" y1="274.092" x2="244.808" y2="269.571" gradientUnits="userSpaceOnUse">
<stop stop-color="#C1C1C1"/>
<stop offset="1" stop-color="#E2E2E2"/>
</linearGradient>
<linearGradient id="paint1_linear" x1="159.273" y1="127.774" x2="142.32" y2="178.199" gradientUnits="userSpaceOnUse">
<stop stop-color="#6B42DD"/>
<stop offset="1" stop-color="#855BFC" stop-opacity="0"/>
</linearGradient>
<clipPath id="clip0">
<rect width="422" height="399" fill="white"/>
</clipPath>
</defs>
</svg>
