<svg id="Capa_1" data-name="Capa 1" xmlns="http://www.w3.org/2000/svg" viewBox="0 0 383.8 337.7"><defs><style>.cls-1{fill:#fff;}</style></defs><title>likeIcon</title><path class="cls-1" d="M299.9,97.54a12,12,0,0,0-12,12v216a12,12,0,0,0,12,12h72a12,12,0,0,0,12-12v-216a12,12,0,0,0-12-12Zm12,24h48v192h-48Zm0,192"/><path class="cls-1" d="M44.22,121.54A44.3,44.3,0,0,0,1,175.83L26.66,269.4a60.12,60.12,0,0,0,57.86,44.13H203.9a60.07,60.07,0,0,0,60-60V152a60,60,0,0,0-15.39-40.13L152.82,5.51A12,12,0,0,0,141,1.9L123.37,6.31A36,36,0,0,0,100.62,58.7l25,45a12,12,0,0,1-10.5,17.82ZM24.31,170a20.35,20.35,0,0,1,19.91-24.41h70.9A36,36,0,0,0,146.6,92.07l-25-45a12,12,0,0,1,7.59-17.48l10.62-2.64,90.86,100.94A36,36,0,0,1,239.9,152V253.54a36,36,0,0,1-36,36H84.52a36.08,36.08,0,0,1-34.71-26.48L24.31,170Zm0,0"/></svg>